<svg width="20" height="30" viewBox="-10 12 50 50" fill="none" xmlns="http://www.w3.org/2000/svg"> 
<path d="M29.1789 15.5267V34.7678C29.1789 35.8294 28.2435 36.6919 27.0921 36.6919C25.9408 36.6919 25.0054 35.8294 25.0054 34.7678V28.531C25.0054 27.4694 24.0699 26.6069 22.9186 26.6069H18.745C17.5937 26.6069 16.6582 27.4694 16.6582 28.531V29.3272C16.6582 30.3888 15.7228 31.2513 14.5714 31.2513C13.4201 31.2513 12.4846 30.3888 12.4846 29.3272V20.2042C12.4846 19.1427 13.4201 18.2801 14.5714 18.2801C15.7228 18.2801 16.6582 19.1427 16.6582 20.2042V20.8677C16.6582 21.9293 17.5937 22.7918 18.745 22.7918H22.9546C24.1059 22.7918 25.0413 21.9293 25.0413 20.8677V15.5267C25.0413 14.4651 25.9768 13.6025 27.1281 13.6025C28.2435 13.6357 29.1789 14.4651 29.1789 15.5267Z" fill="white"/>
<path d="M25.5091 40.6401C24.8974 40.6401 24.2858 40.9055 23.926 41.37C21.8752 43.8249 18.6011 45.4173 14.9672 45.4173C8.81478 45.4173 3.81369 40.9387 3.81369 35.4649V14.3328C3.81369 8.85906 8.85076 4.38052 14.9672 4.38052C18.709 4.38052 22.0191 6.03924 24.0699 8.56049C24.4657 9.02494 25.0413 9.32351 25.689 9.32351H25.9048C27.4879 9.32351 28.4593 7.66479 27.5599 6.47051C24.8974 2.88767 20.3641 0.499115 15.2191 0.499115H14.7873C6.65603 0.499115 -9.15527e-05 6.43733 -9.15527e-05 13.6694V35.8298C-9.15527e-05 43.0619 6.65603 49.0001 14.7873 49.0001H15.2191C20.1122 49.0001 24.4297 46.8769 27.1281 43.5927C28.0636 42.3984 27.1641 40.6401 25.5091 40.6401Z" fill="white"/>
</svg>
